<?xml version="1.0" encoding="UTF-8" standalone="no"?>
<!DOCTYPE svg PUBLIC "-//W3C//DTD SVG 1.1//EN" "http://www.w3.org/Graphics/SVG/1.1/DTD/svg11.dtd">
<svg width="100%" height="100%" viewBox="0 0 1000 1000" version="1.1" xmlns="http://www.w3.org/2000/svg" xmlns:xlink="http://www.w3.org/1999/xlink" xml:space="preserve" xmlns:serif="http://www.serif.com/" style="fill-rule:evenodd;clip-rule:evenodd;stroke-linejoin:round;stroke-miterlimit:2;">
    <path d="M1000,204.608C1000,91.682 908.318,0 795.392,0L204.608,0C91.682,0 0,91.682 0,204.608L0,795.392C0,908.318 91.682,1000 204.608,1000L795.392,1000C908.318,1000 1000,908.318 1000,795.392L1000,204.608Z" style="fill:white;"/>
    <g transform="matrix(14.0756,0,0,14.0756,-7216.83,-5169.53)">
        <g transform="matrix(50,0,0,50,525.598,420.418)">
            <path d="M0.808,-0.353C0.808,-0.341 0.804,-0.332 0.794,-0.323L0.542,-0.072C0.534,-0.064 0.524,-0.06 0.514,-0.06C0.503,-0.06 0.494,-0.063 0.487,-0.07C0.479,-0.077 0.476,-0.087 0.476,-0.098C0.476,-0.103 0.476,-0.108 0.478,-0.113C0.48,-0.118 0.483,-0.122 0.486,-0.125L0.554,-0.195L0.719,-0.343L0.728,-0.322L0.598,-0.313L0.137,-0.313C0.125,-0.313 0.116,-0.317 0.108,-0.324C0.101,-0.332 0.098,-0.341 0.098,-0.353C0.098,-0.364 0.101,-0.373 0.108,-0.381C0.116,-0.388 0.125,-0.392 0.137,-0.392L0.598,-0.392L0.728,-0.383L0.719,-0.361L0.554,-0.51L0.486,-0.58C0.483,-0.583 0.48,-0.587 0.478,-0.592C0.476,-0.597 0.476,-0.602 0.476,-0.607C0.476,-0.618 0.479,-0.628 0.487,-0.635C0.494,-0.642 0.503,-0.646 0.514,-0.646C0.524,-0.646 0.534,-0.641 0.542,-0.633L0.794,-0.382C0.804,-0.373 0.808,-0.364 0.808,-0.353Z" style="fill-rule:nonzero;"/>
        </g>
    </g>
</svg>
